<svg version="1.1" id="Layer_1" xmlns="http://www.w3.org/2000/svg" xmlns:xlink="http://www.w3.org/1999/xlink" x="0px" y="0px"
	 viewBox="0 0 92.8 40.9" style="enable-background:new 0 0 92.8 40.9;" xml:space="preserve">
  
  <defs>

  <style type="text/css">

    .code {
      fill : white;
      stroke: black;
      width: 10%;
      stroke-width: 1;
      stroke-miterlimit: 5;
      stroke-dasharray: 800;
      stroke-dashoffset: 0;
      -webkit-animation: dash 8s linear forwards;
    }
    
    #logo:hover .code {
      fill: black;
      transition: 1s;
    }
    
    #logo:active .code {
      fill:darkblue;
      stroke:darkblue;
      transition: 0s;
    }

    @-webkit-keyframes dash {
      from {
        stroke-dashoffset: 800;
      }
      to {
        stroke-dashoffset: 0;
      }
    }

  </style>
  
  <script type="text/javascript">
  
  var clicker = document.querySelector("#logo");
    
  clicker.addEventListener( "click", function() {
    this.classList.toggle( "active" );
  });
  
  </script>

</defs>
  
<g id="logo">
	<path class="code" d="M0.8,21.2v-1.9c0-1,0.5-1.8,1.5-2.3L21.7,5.5c0.5-0.4,1.1-0.5,1.6-0.5c0.6,0,1.2,0.2,1.7,0.7s0.7,1.1,0.7,1.8
		c0,0.9-0.4,1.6-1.1,2L6.5,20.2l18.1,10.7c0.7,0.5,1.1,1.2,1.1,2.1c0,0.7-0.2,1.3-0.7,1.8s-1.1,0.7-1.7,0.7c-0.5,0-1-0.2-1.6-0.5
		L2.3,23.5C1.3,23,0.8,22.2,0.8,21.2z"/>
	<path class="code" d="M56.9,5.1L37,39c-0.3,0.5-0.8,0.8-1.5,0.8c-0.6,0-1.2-0.2-1.8-0.7c-0.6-0.4-0.8-1-0.8-1.7
		c0-0.6,0.2-1.2,0.6-1.9l20-33.9c0.3-0.5,0.8-0.8,1.5-0.8c0.6,0,1.2,0.2,1.8,0.6c0.6,0.4,0.8,1,0.8,1.7C57.6,3.7,57.3,4.4,56.9,5.1z
		"/>
	<path class="code" d="M91.6,19.3v1.9c0,1-0.5,1.8-1.4,2.4L70.8,35c-0.6,0.4-1.1,0.5-1.6,0.5c-0.6,0-1.2-0.2-1.7-0.7
		c-0.5-0.5-0.7-1.1-0.7-1.8c0-0.9,0.4-1.6,1.1-2.1l18.1-10.7L67.8,9.5c-0.7-0.5-1.1-1.2-1.1-2.1c0-0.7,0.2-1.3,0.7-1.8
		s1.1-0.7,1.7-0.7c0.5,0,1,0.2,1.6,0.5l19.4,11.5C91.1,17.5,91.6,18.3,91.6,19.3z"/>
</g>
</svg>
